<svg width="57" height="67" viewBox="0 0 57 67" fill="none" xmlns="http://www.w3.org/2000/svg">
<path d="M0.696764 25.5894C0.32834 25.3098 0.104128 24.9608 0.0241271 24.5424C-0.0558735 24.124 0.0630753 23.69 0.380972 23.2403C3.64416 18.4859 7.73682 14.7943 12.659 12.1655C17.5811 9.53661 22.8306 8.22218 28.4075 8.22218C33.9865 8.22218 39.2497 9.49522 44.1971 12.0413C49.1445 14.5874 53.2761 18.2644 56.5919 23.0725C56.9604 23.5758 57.0793 24.0233 56.9488 24.4149C56.8182 24.8064 56.594 25.142 56.2761 25.4216C55.9604 25.7013 55.5919 25.8277 55.1709 25.8009C54.7498 25.774 54.3814 25.5358 54.0656 25.086C51.1708 20.7233 47.4477 17.3818 42.896 15.0617C38.3444 12.7416 33.5149 11.5804 28.4075 11.5782C23.3022 11.5782 18.5127 12.7393 14.039 15.0617C9.56525 17.384 5.8547 20.7255 2.90731 25.086C2.59152 25.5894 2.22309 25.8691 1.80204 25.925C1.38098 25.981 1.01256 25.8691 0.696764 25.5894ZM37.3286 66.9521C31.8549 65.4978 27.3812 62.6027 23.9075 58.2668C20.4338 53.9308 18.6969 48.6317 18.6969 42.3694C18.6969 39.5728 19.6443 37.2236 21.539 35.3218C23.4338 33.4201 25.7233 32.4692 28.4075 32.4692C31.0917 32.4692 33.3812 33.4201 35.276 35.3218C37.1707 37.2236 38.1181 39.5728 38.1181 42.3694C38.1181 44.2152 38.776 45.7679 40.0918 47.0275C41.4076 48.2871 42.9603 48.9158 44.7497 48.9136C46.5392 48.9136 48.0656 48.2849 49.3287 47.0275C50.5919 45.7702 51.2235 44.2174 51.2235 42.3694C51.2235 35.8812 48.9866 30.4277 44.5129 26.0089C40.0392 21.5902 34.697 19.3809 28.4865 19.3809C22.2759 19.3809 16.9337 21.5902 12.46 26.0089C7.98629 30.4277 5.74943 35.8532 5.74943 42.2855C5.74943 43.6279 5.86838 45.3059 6.10628 47.3195C6.34418 49.3331 6.90944 51.6823 7.80208 54.3671C7.95998 54.8705 7.94735 55.318 7.76419 55.7095C7.58103 56.101 7.27787 56.3807 6.85471 56.5485C6.43365 56.7163 6.02628 56.7029 5.63259 56.5082C5.23891 56.3136 4.96206 55.9914 4.80206 55.5417C4.01258 53.3603 3.44731 51.1934 3.10626 49.0411C2.7652 46.8888 2.59362 44.6649 2.59152 42.3694C2.59152 34.9303 5.13154 28.6937 10.2116 23.6597C15.2916 18.6258 21.3569 16.1088 28.4075 16.1088C35.5128 16.1088 41.6181 18.6258 46.7234 23.6597C51.8287 28.6937 54.3814 34.9303 54.3814 42.3694C54.3814 45.1661 53.4477 47.5007 51.5803 49.3734C49.7129 51.246 47.4361 52.1835 44.7497 52.1857C42.0655 52.1857 39.7634 51.2494 37.8434 49.3767C35.9234 47.5041 34.9623 45.1683 34.9602 42.3694C34.9602 40.5236 34.316 38.9709 33.0275 37.7113C31.7391 36.4517 30.1991 35.823 28.4075 35.8252C26.618 35.8252 25.078 36.455 23.7875 37.7146C22.4969 38.9743 21.8527 40.5259 21.8548 42.3694C21.8548 47.7949 23.3685 52.3255 26.3959 55.9612C29.4233 59.5968 33.3307 62.1418 38.1181 63.5961C38.5918 63.7639 38.9076 64.0435 39.0655 64.4351C39.2234 64.8266 39.2497 65.2461 39.1444 65.6936C39.0392 66.0851 38.8286 66.4207 38.5128 66.7004C38.1971 66.98 37.8023 67.0639 37.3286 66.9521ZM10.96 8.05438C10.5389 8.33405 10.1179 8.40452 9.69683 8.26581C9.27578 8.1271 8.95999 7.83289 8.74946 7.38318C8.53893 6.93572 8.4863 6.53076 8.59156 6.16831C8.69683 5.80587 8.95999 5.48369 9.38104 5.20179C12.3284 3.52379 15.4074 2.23733 18.618 1.3424C21.8285 0.447465 25.0917 0 28.4075 0C31.776 0 35.0654 0.434042 38.276 1.30213C41.4866 2.17021 44.5918 3.41416 47.5919 5.03399C48.0656 5.31366 48.3424 5.64925 48.4224 6.04079C48.5024 6.43232 48.4624 6.82385 48.3024 7.21539C48.1445 7.60692 47.8813 7.91455 47.5129 8.13828C47.1445 8.36201 46.6971 8.33405 46.1708 8.05438C43.3813 6.54419 40.4992 5.38413 37.5244 4.57422C34.5497 3.76431 31.5107 3.35823 28.4075 3.35599C25.3548 3.35599 22.3548 3.7341 19.4074 4.49032C16.46 5.24654 13.6442 6.43456 10.96 8.05438ZM20.2759 65.7775C17.1706 62.3096 14.7895 58.7724 13.1327 55.1658C11.4758 51.5592 10.6463 47.2938 10.6442 42.3694C10.6442 37.2795 12.3811 32.9861 15.8548 29.4891C19.3285 25.9922 23.5127 24.2448 28.4075 24.247C33.3023 24.247 37.5128 25.9955 41.0392 29.4925C44.5655 32.9894 46.3287 37.2817 46.3287 42.3694C46.3287 42.8728 46.1845 43.2789 45.8961 43.5876C45.6076 43.8964 45.2255 44.0496 44.7497 44.0474C44.3287 44.0474 43.9603 43.8941 43.6445 43.5876C43.3287 43.2811 43.1708 42.875 43.1708 42.3694C43.1708 38.1744 41.7097 34.6652 38.7876 31.8417C35.8655 29.0182 32.4054 27.6053 28.4075 27.603C24.4075 27.603 20.9738 29.0159 18.1064 31.8417C15.239 34.6674 13.8042 38.1767 13.8021 42.3694C13.8021 46.9 14.539 50.746 16.0127 53.9073C17.4864 57.0687 19.6443 60.2423 22.4864 63.4283C22.8022 63.7639 22.9601 64.1554 22.9601 64.6029C22.9601 65.0503 22.8022 65.4419 22.4864 65.7775C22.1706 66.1131 21.8022 66.2809 21.3811 66.2809C20.9601 66.2809 20.5917 66.1131 20.2759 65.7775ZM44.1182 60.0723C39.4339 60.0723 35.3676 58.3943 31.9191 55.0383C28.4707 51.6823 26.7475 47.4593 26.7496 42.3694C26.7496 41.9219 26.8949 41.5304 27.1854 41.1948C27.4759 40.8592 27.857 40.6914 28.3286 40.6914C28.8022 40.6914 29.1844 40.8592 29.4749 41.1948C29.7654 41.5304 29.9096 41.9219 29.9075 42.3694C29.9075 46.5644 31.3286 50.0043 34.1707 52.6891C37.0128 55.3739 40.3286 56.7163 44.1182 56.7163C44.4339 56.7163 44.8813 56.6883 45.4603 56.6324C46.0392 56.5765 46.6445 56.4926 47.2761 56.3807C47.7498 56.2688 48.1582 56.3393 48.5013 56.5921C48.8445 56.8449 49.0677 57.2219 49.1708 57.7231C49.2761 58.1705 49.1971 58.5621 48.934 58.8977C48.6708 59.2333 48.3287 59.457 47.9077 59.5689C46.9603 59.8485 46.1319 60.0029 45.4224 60.032C44.7129 60.0611 44.2782 60.0745 44.1182 60.0723Z" fill="black"/>
</svg>
